<svg width="16" height="16" fill="none" xmlns="http://www.w3.org/2000/svg"><g clip-path="url(#a)"><path fill-rule="evenodd" clip-rule="evenodd" d="M0 2a2 2 0 1 1 4 0 2 2 0 0 1-4 0Zm6 0a2 2 0 1 1 4 0 2 2 0 0 1-4 0Zm10 0a2 2 0 1 0-4 0 2 2 0 0 0 4 0ZM0 8a2 2 0 1 1 4 0 2 2 0 0 1-4 0Zm10 0a2 2 0 1 0-4 0 2 2 0 0 0 4 0Zm2 0a2 2 0 1 1 4 0 2 2 0 0 1-4 0Zm-8 6a2 2 0 1 0-4 0 2 2 0 0 0 4 0Zm2 0a2 2 0 1 1 4 0 2 2 0 0 1-4 0Zm10 0a2 2 0 1 0-4 0 2 2 0 0 0 4 0Z" fill="#242424"/></g><defs><clipPath id="a"><path fill="#fff" d="M0 0h16v16H0z"/></clipPath></defs></svg>